<svg width="24" height="24" viewBox="0 0 24 24" fill="none" xmlns="http://www.w3.org/2000/svg">
<g clip-path="url(#clip0_4129_959)">
<path d="M10.5225 12.992L10.5416 12.7064L10.3401 12.9078C10.1329 13.115 9.81884 13.172 9.55198 13.0508L9.07128 12.8322L9.28976 13.3129C9.41103 13.5797 9.35412 13.8938 9.14684 14.101L8.94537 14.3025L9.23103 14.2835C9.24673 14.2825 9.26244 14.2819 9.278 14.2819C9.55217 14.2819 9.80328 14.442 9.91789 14.6942L10.2062 15.3286L10.4353 14.641C10.5053 14.4311 10.6701 14.2663 10.88 14.1963L11.5676 13.9672L10.9332 13.6789C10.6667 13.5578 10.5031 13.2842 10.5225 12.992Z" fill="white"/>
<path d="M23.7707 9.27656C23.4998 9.00563 23.3521 8.64563 23.3554 8.26219C23.3582 7.87922 23.5115 7.52157 23.7862 7.25485C23.9217 7.1236 23.9985 6.9436 23.9999 6.75563C24.0013 6.56719 23.9273 6.38579 23.7942 6.25266L21.8306 4.28954C21.697 4.15595 21.5137 4.08095 21.3257 4.08376C21.1368 4.08564 20.9564 4.16392 20.8256 4.30032C20.662 4.47142 20.4421 4.55814 20.2054 4.54548C19.8056 4.52439 19.4756 4.19439 19.4545 3.79454C19.4418 3.55782 19.5285 3.33798 19.6996 3.17439C19.836 3.04361 19.9143 2.86314 19.9162 2.67423C19.9185 2.48486 19.844 2.30298 19.7104 2.16939L17.7473 0.205801C17.6142 0.0726758 17.4328 -0.00138658 17.2443 1.96658e-05C17.0564 0.00142591 16.8764 0.0783008 16.7451 0.213769C16.4784 0.488456 16.1207 0.641737 15.7378 0.64455C15.3539 0.645956 14.9943 0.500175 14.7234 0.229238L14.7004 0.205801C14.4257 -0.0684177 13.9804 -0.0684177 13.7057 0.205801L11.5779 2.33364L12.8722 3.62786C13.1468 3.90245 13.1468 4.34762 12.8722 4.62221C12.7349 4.75951 12.5549 4.82818 12.375 4.82818C12.1951 4.82818 12.0151 4.75956 11.8779 4.62221L10.5836 3.328L0.20577 13.7058C-0.0684482 13.9805 -0.0684482 14.4258 0.20577 14.7005L0.229207 14.7234C0.500144 14.9944 0.6478 15.3544 0.644519 15.7378C0.641707 16.1208 0.488426 16.4784 0.213739 16.7451C0.0782702 16.8764 0.0013954 17.0564 -1.08518e-05 17.2444C-0.0014171 17.4328 0.0726453 17.6142 0.20577 17.7473L2.16936 19.7104C2.30295 19.844 2.48436 19.9167 2.6742 19.9162C2.86311 19.9144 3.04358 19.8361 3.17436 19.6997C3.33795 19.5286 3.55826 19.4419 3.79451 19.4545C4.19436 19.4756 4.52436 19.8056 4.54545 20.2054C4.5581 20.4422 4.47139 20.662 4.30029 20.8256C4.16389 20.9564 4.08561 21.1369 4.08373 21.3258C4.08139 21.5151 4.15592 21.697 4.28951 21.8306L6.25263 23.7942C6.38482 23.9259 6.56341 24 6.74998 24H6.7556C6.94357 23.9986 7.12357 23.9217 7.25482 23.7862C7.52154 23.5115 7.87919 23.3583 8.26216 23.3554C8.64513 23.3526 9.0056 23.4998 9.27653 23.7708L9.2995 23.7942C9.57419 24.0684 10.0195 24.0684 10.2942 23.7942L20.672 13.4164L19.3777 12.1222C19.1032 11.8476 19.1032 11.4024 19.3777 11.1278C19.6523 10.8532 20.0975 10.8532 20.3721 11.1278L21.6663 12.422L23.7942 10.2942C24.0684 10.0195 24.0684 9.57417 23.7942 9.29949L23.7707 9.27656ZM14.1911 14.1048C14.176 14.3935 13.9856 14.6436 13.7113 14.735L11.6583 15.4193L10.974 17.4723C10.8826 17.7466 10.6325 17.937 10.3438 17.9521C10.3314 17.9528 10.3191 17.9531 10.3068 17.9531C10.0323 17.9531 9.78138 17.7928 9.66686 17.5409L8.839 15.7191L7.17176 15.8302C6.88005 15.8501 6.60574 15.686 6.48471 15.4192C6.36368 15.1524 6.42068 14.8386 6.62782 14.6315L7.80794 13.4513L7.01519 11.7073C6.89393 11.4404 6.95083 11.1264 7.15812 10.9192C7.3653 10.7119 7.67936 10.655 7.94622 10.7762L9.69025 11.569L10.8704 10.3889C11.0775 10.1817 11.3913 10.1247 11.6582 10.2457C11.9249 10.3668 12.0887 10.6405 12.0692 10.9328L11.958 12.6L13.7798 13.4279C14.0431 13.5475 14.2062 13.8161 14.1911 14.1048ZM15.4972 7.24716C15.3599 7.38446 15.1799 7.45313 15 7.45313C14.8201 7.45313 14.6401 7.3845 14.5029 7.24716L14.1279 6.87216C13.8533 6.59757 13.8533 6.1524 14.1279 5.8778C14.4024 5.60321 14.8476 5.60321 15.1222 5.8778L15.4972 6.2528C15.7718 6.5274 15.7718 6.97257 15.4972 7.24716ZM18.1222 9.87216C17.9849 10.0095 17.8049 10.0781 17.625 10.0781C17.4451 10.0781 17.2651 10.0095 17.1278 9.87216L16.7528 9.49716C16.4783 9.22256 16.4783 8.77739 16.7528 8.5028C17.0274 8.22821 17.4726 8.22821 17.7472 8.5028L18.1222 8.8778C18.3967 9.15239 18.3967 9.59756 18.1222 9.87216Z" fill="white"/>
</g>
<defs>
<clipPath id="clip0_4129_959">
<rect width="24" height="24" fill="white"/>
</clipPath>
</defs>
</svg>
