<svg width="40" height="40" viewBox="0 0 40 40" fill="none" xmlns="http://www.w3.org/2000/svg">
<g clip-path="url(#clip0_4129_1130)">
<path d="M32.2773 21.393C32.2727 21.6844 32.2703 21.9758 32.2703 22.268V25.625C32.2703 26.2719 31.7453 26.7969 31.0984 26.7969C30.4508 26.7969 29.9266 26.2719 29.9266 25.625V22.268C29.9266 22.0097 29.9252 21.7527 29.9281 21.4952C30.03 14.6209 31.4907 7.94677 34.275 1.64559C34.4562 1.23559 34.3876 0.758172 34.0984 0.41575C33.8091 0.0733281 33.3498 -0.0736251 32.9153 0.0359843L30.0905 0.751609C20.5725 3.16278 13.1673 10.5748 10.7651 20.0952C10.647 20.5635 10.5442 21.0354 10.4563 21.51C9.89711 21.39 9.32672 21.3282 8.75 21.3282C3.925 21.3282 0 25.4985 0 30.625C0 33.0907 0.904687 35.4274 2.54688 37.2047C4.2125 39.0071 6.41563 40 8.75 40H13.75C18.532 40 22.4219 35.7946 22.4219 30.625C22.4219 26.0563 19.332 22.2461 15.2742 21.4719C14.9883 22.8368 14.8438 24.2305 14.8438 25.625C14.8438 26.2719 14.3188 26.7969 13.6719 26.7969C13.025 26.7969 12.5 26.2719 12.5 25.625C12.5 24.2026 12.6054 22.7765 12.8721 21.3804C12.9231 21.1422 12.9779 20.9048 13.0376 20.6685C15.229 11.9842 21.9838 5.22302 30.6661 3.02356L31.2223 2.88262C28.9033 8.81755 27.6824 15.0457 27.5852 21.439C27.1455 21.366 26.6997 21.3282 26.25 21.3282C24.6156 21.3282 23.0844 21.8157 21.7781 22.6618C23.6297 24.7454 24.7656 27.5477 24.7656 30.625C24.7656 33.7274 23.6273 36.5516 21.7703 38.65C23.0789 39.5063 24.6125 40 26.25 40H31.25C33.5844 40 35.7875 39.0071 37.4531 37.2047C39.0953 35.4274 40 33.0907 40 30.625C40 25.868 36.6195 21.9336 32.2773 21.393Z" fill="#FF070B"/>
<path d="M11.8297 11.5445C12.3578 10.6742 12.9297 9.83516 13.5437 9.02969L11.2805 6.76641C10.8234 6.30859 10.8234 5.56641 11.2805 5.10859C11.7383 4.65156 12.4805 4.65156 12.9383 5.10859L15.0445 7.21484C15.8289 6.34297 16.6648 5.51953 17.5484 4.74844C16.4734 1.97344 13.775 0 10.625 0H7.5C6.85313 0 6.32812 0.525 6.32812 1.17188V4.375C6.32812 7.80312 8.66484 10.6961 11.8297 11.5445Z" fill="#FF070B"/>
</g>
<defs>
<clipPath id="clip0_4129_1130">
<rect width="40" height="40" fill="white"/>
</clipPath>
</defs>
</svg>
