<svg width="32" height="32" viewBox="0 0 32 32" fill="none" xmlns="http://www.w3.org/2000/svg">
<path d="M31.5799 16.3471C31.5799 17.017 31.3333 17.608 30.8399 18.1202L29.3399 19.5978C28.8333 20.0969 28.2266 20.3465 27.5199 20.3465C26.7999 20.3465 26.1999 20.0969 25.7199 19.5978L19.8399 13.8254V27.695C19.8399 28.3779 19.5899 28.9329 19.0899 29.3597C18.5899 29.7866 17.9866 30 17.2799 30H14.7199C14.0133 30 13.4099 29.7866 12.9099 29.3597C12.4099 28.9329 12.1599 28.3779 12.1599 27.695V13.8254L6.27992 19.5978C5.79992 20.0969 5.19992 20.3465 4.47992 20.3465C3.75992 20.3465 3.15992 20.0969 2.67992 19.5978L1.17992 18.1202C0.673255 17.6212 0.419922 17.0301 0.419922 16.3471C0.419922 15.651 0.673255 15.0534 1.17992 14.5543L14.1999 1.72894C14.6666 1.24298 15.2666 1 15.9999 1C16.7199 1 17.3266 1.24298 17.8199 1.72894L30.8399 14.5543C31.3333 15.0666 31.5799 15.6642 31.5799 16.3471Z" fill="white"/>
</svg>
